<?xml version="1.0" encoding="UTF-8" standalone="no"?>
<svg width="18px" height="18px" viewBox="0 0 18 18" version="1.1" xmlns="http://www.w3.org/2000/svg" xmlns:xlink="http://www.w3.org/1999/xlink" xmlns:sketch="http://www.bohemiancoding.com/sketch/ns">
    <!-- Generator: Sketch 3.3.3 (12072) - http://www.bohemiancoding.com/sketch -->
    <title>linkedin-on</title>
    <desc>Created with Sketch.</desc>
    <defs></defs>
    <g id="Page-1" stroke="none" stroke-width="1" fill="none" fill-rule="evenodd" sketch:type="MSPage">
        <g id="linkedin-on" sketch:type="MSLayerGroup" transform="translate(9.000000, 9.000000) scale(1, -1) translate(-9.000000, -9.000000) " fill="#FFFFFF">
            <path d="M6.85819065e-15,16.5473912 C6.85819065e-15,17.2523665 0.593697304,17.8242064 1.3260945,17.8242064 L16.618795,17.8242064 C17.3511681,17.8242064 17.9448895,17.2523665 17.9448895,16.5473912 L17.9448895,1.27681517 C17.9448895,0.571601642 17.3511681,0 16.618795,0 L1.3260945,0 C0.593697304,0 0,0.571601642 0,1.27681517 L0,16.5473912 L6.85819065e-15,16.5473912 Z M7.10526316,2.80519481 L9.81565399,2.80519481 L9.81565399,7.29988905 C9.81565399,7.54043807 9.83326897,7.78074893 9.90483889,7.95270575 C10.1007754,8.43332747 10.5467482,8.93109723 11.2955056,8.93109723 C12.276274,8.93109723 12.6686055,8.19301661 12.6686055,7.11102234 L12.6686055,2.80519481 L15.3787792,2.80519481 L15.3787792,7.42016356 C15.3787792,9.89234066 14.041609,11.042689 12.2583695,11.042689 C10.7961811,11.042689 10.1542719,10.2360161 9.79762879,9.68656407 L9.81572638,9.68656407 L9.81572638,10.8538223 L7.10533555,10.8538223 C7.14090334,10.0985936 7.10533555,2.80519481 7.10533555,2.80519481 L7.10526316,2.80519481 Z M5.47590207,2.80519481 L5.47590207,10.8538223 L2.76548711,10.8538223 L2.76548711,2.80519481 L5.47590207,2.80519481 L5.47590207,2.80519481 Z M4.12068252,11.9527264 C5.06585906,11.9527264 5.65415122,12.5707707 5.65415122,13.3431474 C5.63653623,14.1329103 5.06585906,14.7338066 4.1386112,14.7338066 C3.21145986,14.7338066 2.60526316,14.1329103 2.60526316,13.3431474 C2.60526316,12.5707707 3.19343467,11.9527264 4.10301928,11.9527264 L4.12063426,11.9527264 L4.12068252,11.9527264 Z" id="path14" sketch:type="MSShapeGroup"></path>
        </g>
    </g>
</svg>