<?xml version="1.0" encoding="UTF-8" standalone="no"?>
<svg width="22px" height="18px" viewBox="0 0 22 18" version="1.1" xmlns="http://www.w3.org/2000/svg" xmlns:xlink="http://www.w3.org/1999/xlink" xmlns:sketch="http://www.bohemiancoding.com/sketch/ns">
    <!-- Generator: Sketch 3.3.3 (12072) - http://www.bohemiancoding.com/sketch -->
    <title>twitter-on</title>
    <desc>Created with Sketch.</desc>
    <defs></defs>
    <g id="Page-1" stroke="none" stroke-width="1" fill="none" fill-rule="evenodd" sketch:type="MSPage">
        <g id="twitter-on" sketch:type="MSLayerGroup" fill="#FFFFFF">
            <g id="Page-1" sketch:type="MSShapeGroup">
                <g id="twitter-on">
                    <path d="M21.9777353,2.16079586 C21.1706806,2.52066343 20.3031911,2.76377271 19.3929246,2.87314457 C20.3220574,2.31327514 21.0357694,1.42672629 21.3717311,0.370276714 C20.5020481,0.888798857 19.5389137,1.26520457 18.5136997,1.46807229 C17.6928247,0.588799286 16.5231563,0.0395151429 15.2286673,0.0395151429 C12.7432314,0.0395151429 10.7280097,2.06498443 10.7280097,4.563333 C10.7280097,4.91790857 10.7678246,5.26322314 10.8446033,5.59431514 C7.10416326,5.40567129 3.78798174,3.60456686 1.56819965,0.867520286 C1.18079628,1.53565714 0.958795814,2.31272486 0.958795814,3.14183314 C0.958795814,4.71140357 1.75334628,6.09607929 2.96096465,6.90732514 C2.22323174,6.88384157 1.52926221,6.680313 0.922490699,6.34150414 C0.921979071,6.36035657 0.921979071,6.37931957 0.921979071,6.39839443 C0.921979071,8.59023771 2.47334872,10.4185736 4.53222384,10.8344507 C4.15458233,10.9378684 3.75697837,10.9931053 3.34654023,10.9931053 C3.05653674,10.9931053 2.77465023,10.9646601 2.49978197,10.9119587 C3.0725507,12.7092034 4.73459058,14.0171426 6.70407407,14.0535257 C5.16378372,15.2669777 3.2232571,15.9902421 1.11458396,15.9902421 C0.751310233,15.9902421 0.393083721,15.9687424 0.0409980233,15.9269554 C2.03274756,17.2106396 4.39840884,17.9595926 6.9400036,17.9595926 C15.2181738,17.9595926 19.745156,11.0662046 19.745156,5.08780929 C19.745156,4.89166843 19.7407688,4.69662943 19.7321044,4.50247371 C20.6113293,3.86476586 21.3742906,3.06807171 21.9776623,2.16079586 L21.9777353,2.16079586 L21.9777353,2.16079586 Z" id="Shape"></path>
                </g>
            </g>
        </g>
    </g>
</svg>