<?xml version="1.0" encoding="UTF-8" standalone="no"?>
<svg width="36px" height="36px" viewBox="0 0 36 36" version="1.1" xmlns="http://www.w3.org/2000/svg" xmlns:xlink="http://www.w3.org/1999/xlink" xmlns:sketch="http://www.bohemiancoding.com/sketch/ns">
    <!-- Generator: Sketch 3.3 (11970) - http://www.bohemiancoding.com/sketch -->
    <title>Shape</title>
    <desc>Created with Sketch.</desc>
    <defs></defs>
    <g id="Page-1" stroke="none" stroke-width="1" fill="none" fill-rule="evenodd" sketch:type="MSPage">
        <g id="logos_full_cartodb_dark" sketch:type="MSLayerGroup" fill="#FFFFFF">
            <g id="Page-1" sketch:type="MSShapeGroup">
                <g id="logos_full_cartodb_dark">
                    <path d="M0,3.60002299 C0,1.61178519 1.61090383,0 3.60002299,0 L32.399977,0 C34.3882148,0 36,1.61090384 36,3.60002299 L36,32.399977 C36,34.3882148 34.3890961,36 32.399977,36 L3.60002299,36 C1.61178519,36 0,34.3890961 0,32.399977 L0,3.60002299 L0,3.60002299 Z M16.9311534,26.7612291 C15.8063162,26.7612291 15.7299956,26.9029512 15.7299956,26.9029512 L16.0062787,28.6339529 C16.0062787,28.6339529 16.2522239,28.8 16.8947033,28.8 C17.5371828,28.8 17.7467077,28.6339529 17.7467077,28.6339529 L18.1251878,26.9124102 C18.1251878,26.9124102 18.0560205,26.7612291 16.9311534,26.7612291 L16.9311534,26.7612291 L16.9311534,26.7612291 Z M24.6846143,13.9273867 L24.6229569,13.8790902 C24.6229569,13.8790902 24.7326343,13.8278026 24.7922543,13.7704302 C24.9087726,13.658072 24.976557,13.5176465 24.9534022,13.5331757 C24.7534247,13.666809 24.3626755,13.6017162 24.3626755,13.6017162 C24.3626755,13.6017162 24.4979172,13.5767281 24.5779706,13.5251017 C24.7002889,13.446454 24.7357127,13.3377498 24.7207073,13.3482106 C24.6229569,13.4150273 24.5169974,13.4346524 24.4434427,13.4346524 C23.9814887,13.4360079 23.9065511,13.0387469 23.4786677,13.0387469 C23.3029012,13.0387469 22.9332695,13.218629 22.8184614,13.0401024 C22.188935,11.5456482 21.2408608,9.38532551 20.3166553,7.2 C16.5002214,7.97286352 14.8033957,14.3965032 18.5142269,15.5375878 C16.4964886,14.962154 15.5198015,12.9897873 15.8257236,11.2756263 C14.4443377,11.7457594 12.6449729,12.4798442 11.239748,14.1751021 C10.3976184,15.1909809 10.4010537,16.277404 10.4010537,18.4269269 C10.3594729,19.0878007 9.81,19.3391847 9.81,19.3391847 C9.81,19.3391847 10.4647485,19.3662207 10.6739015,19.0323878 C11.5756362,20.5565596 15.9289319,24.4776308 15.9289319,25.3740794 C15.9289319,25.3740794 15.7728999,25.7949288 15.8205929,25.8006602 C16.2168148,25.8465699 18.0611363,25.9373876 18.0611363,25.9373876 C18.1415317,25.6326239 17.9558458,25.4185747 17.9558458,25.2046582 C17.9558458,23.0236792 21.0814231,21.0007028 21.4486754,20.7526633 C21.5798272,20.829602 21.8084026,20.8970964 21.9204743,20.9453782 C22.9727831,21.3986266 21.7538984,23.9666857 20.6631022,23.9666857 C19.406414,23.9666857 21.3720127,21.9035309 21.4115411,21.8542619 C21.542351,21.6912645 21.1856873,21.8420921 21.0729166,21.733432 C21.004106,21.6669395 21.0814231,21.4890907 20.9100735,21.6271147 C20.9100735,21.6271147 18.2999282,23.8593665 20.1456328,24.5160855 C23.6439052,25.7611595 28.7612847,17.7526162 24.6846143,13.9273867 L24.6846143,13.9273867 L24.6846143,13.9273867 Z" id="Shape"></path>
                </g>
            </g>
        </g>
    </g>
</svg>