<?xml version="1.0" encoding="utf-8"?>
<!-- Generator: Adobe Illustrator 16.0.0, SVG Export Plug-In . SVG Version: 6.00 Build 0)  -->
<!DOCTYPE svg PUBLIC "-//W3C//DTD SVG 1.1//EN" "http://www.w3.org/Graphics/SVG/1.1/DTD/svg11.dtd">
<svg version="1.1" id="Layer_1" xmlns="http://www.w3.org/2000/svg" xmlns:xlink="http://www.w3.org/1999/xlink" x="0px" y="0px"
	 width="36px" height="48px" viewBox="0 0 36 48" enable-background="new 0 0 36 48" xml:space="preserve">
<g>
	<path fill="#919090" d="M15.651,43.471c-2.47,0-2.64,0.309-2.64,0.309l0.61,3.851c0,0,0.54,0.37,1.95,0.37
		c1.41,0,1.87-0.37,1.87-0.37l0.84-3.819C18.281,43.811,18.121,43.471,15.651,43.471z"/>
	<path fill="#919090" d="M32.69,14.95l-0.129-0.11c0,0,0.239-0.11,0.369-0.24c0.25-0.25,0.4-0.56,0.35-0.53
		c-0.439,0.3-1.299,0.16-1.299,0.16s0.299-0.06,0.479-0.17c0.271-0.18,0.34-0.42,0.31-0.4c-0.209,0.15-0.449,0.19-0.609,0.19
		c-1.01,0.01-1.18-0.88-2.12-0.88c-0.39,0-1.2,0.4-1.45,0.01c-1.38-3.32-3.47-8.12-5.5-12.98c-8.39,1.72-12.12,15.99-3.96,18.53
		c-4.43-1.28-6.58-5.66-5.91-9.47c-3.03,1.04-6.99,2.67-10.08,6.44c-1.85,2.26-1.84,4.67-1.84,9.45c-0.09,1.47-1.3,2.03-1.3,2.03
		s1.44,0.06,1.9-0.69c1.98,3.39,11.55,12.101,11.55,14.101c0,0-0.34,0.93-0.24,0.939c0.87,0.109,4.92,0.311,4.92,0.311
		c0.18-0.681-0.23-1.15-0.23-1.631c0-4.85,6.87-9.34,7.68-9.89c0.29,0.17,0.79,0.319,1.04,0.43c2.31,1-0.37,6.71-2.771,6.71
		c-2.76,0,1.561-4.59,1.65-4.689c0.29-0.37-0.5-0.03-0.75-0.271c-0.15-0.149,0.02-0.55-0.35-0.239c0,0-5.74,4.959-1.68,6.42
		C30.401,41.25,41.651,23.45,32.69,14.95z"/>
</g>
</svg>
