<?xml version="1.0" encoding="UTF-8" standalone="no"?>
<svg width="140px" height="36px" viewBox="0 0 140 36" version="1.1" xmlns="http://www.w3.org/2000/svg" xmlns:xlink="http://www.w3.org/1999/xlink" xmlns:sketch="http://www.bohemiancoding.com/sketch/ns">
    <!-- Generator: Sketch 3.3 (11970) - http://www.bohemiancoding.com/sketch -->
    <title>logos_full_cartodb_dark</title>
    <desc>Created with Sketch.</desc>
    <defs></defs>
    <g id="Page-1" stroke="none" stroke-width="1" fill="none" fill-rule="evenodd" sketch:type="MSPage">
        <g id="logos_full_cartodb_dark" sketch:type="MSLayerGroup" fill="#FFFFFF">
            <g id="Page-1" sketch:type="MSShapeGroup">
                <g id="logos_full_cartodb_dark">
                    <path d="M0,3.60002299 C0,1.61178519 1.61090383,0 3.60002299,0 L32.399977,0 C34.3882148,0 36,1.61090384 36,3.60002299 L36,32.399977 C36,34.3882148 34.3890961,36 32.399977,36 L3.60002299,36 C1.61178519,36 0,34.3890961 0,32.399977 L0,3.60002299 L0,3.60002299 Z M16.9311534,26.7612291 C15.8063162,26.7612291 15.7299956,26.9029512 15.7299956,26.9029512 L16.0062787,28.6339529 C16.0062787,28.6339529 16.2522239,28.8 16.8947033,28.8 C17.5371828,28.8 17.7467077,28.6339529 17.7467077,28.6339529 L18.1251878,26.9124102 C18.1251878,26.9124102 18.0560205,26.7612291 16.9311534,26.7612291 L16.9311534,26.7612291 L16.9311534,26.7612291 Z M24.6846143,13.9273867 L24.6229569,13.8790902 C24.6229569,13.8790902 24.7326343,13.8278026 24.7922543,13.7704302 C24.9087726,13.658072 24.976557,13.5176465 24.9534022,13.5331757 C24.7534247,13.666809 24.3626755,13.6017162 24.3626755,13.6017162 C24.3626755,13.6017162 24.4979172,13.5767281 24.5779706,13.5251017 C24.7002889,13.446454 24.7357127,13.3377498 24.7207073,13.3482106 C24.6229569,13.4150273 24.5169974,13.4346524 24.4434427,13.4346524 C23.9814887,13.4360079 23.9065511,13.0387469 23.4786677,13.0387469 C23.3029012,13.0387469 22.9332695,13.218629 22.8184614,13.0401024 C22.188935,11.5456482 21.2408608,9.38532551 20.3166553,7.2 C16.5002214,7.97286352 14.8033957,14.3965032 18.5142269,15.5375878 C16.4964886,14.962154 15.5198015,12.9897873 15.8257236,11.2756263 C14.4443377,11.7457594 12.6449729,12.4798442 11.239748,14.1751021 C10.3976184,15.1909809 10.4010537,16.277404 10.4010537,18.4269269 C10.3594729,19.0878007 9.81,19.3391847 9.81,19.3391847 C9.81,19.3391847 10.4647485,19.3662207 10.6739015,19.0323878 C11.5756362,20.5565596 15.9289319,24.4776308 15.9289319,25.3740794 C15.9289319,25.3740794 15.7728999,25.7949288 15.8205929,25.8006602 C16.2168148,25.8465699 18.0611363,25.9373876 18.0611363,25.9373876 C18.1415317,25.6326239 17.9558458,25.4185747 17.9558458,25.2046582 C17.9558458,23.0236792 21.0814231,21.0007028 21.4486754,20.7526633 C21.5798272,20.829602 21.8084026,20.8970964 21.9204743,20.9453782 C22.9727831,21.3986266 21.7538984,23.9666857 20.6631022,23.9666857 C19.406414,23.9666857 21.3720127,21.9035309 21.4115411,21.8542619 C21.542351,21.6912645 21.1856873,21.8420921 21.0729166,21.733432 C21.004106,21.6669395 21.0814231,21.4890907 20.9100735,21.6271147 C20.9100735,21.6271147 18.2999282,23.8593665 20.1456328,24.5160855 C23.6439052,25.7611595 28.7612847,17.7526162 24.6846143,13.9273867 L24.6846143,13.9273867 L24.6846143,13.9273867 Z" id="Shape"></path>
                    <path d="M50.5209609,24.9371591 C53.6099323,24.9371591 55.228291,23.4640375 56.1090654,21.8405327 L53.8226237,20.5900911 C53.2295113,21.7350171 51.9599448,22.6464608 50.5209609,22.6464608 C47.9391277,22.6464608 46.0764149,20.6746798 46.0764149,18.003265 C46.0764149,15.3324938 47.9391277,13.359155 50.5209609,13.359155 C51.9599448,13.359155 53.2295113,14.2721903 53.8226237,15.4170824 L56.1090654,14.1449011 C55.228291,12.505176 53.6099323,11.0693034 50.5209609,11.0693034 C46.2674018,11.0693034 43.2,13.6360829 43.2,18.003265 C43.2,22.349351 46.2674018,24.9371591 50.5209609,24.9371591 L50.5209609,24.9371591 L50.5209609,24.9371591 Z M62.0056922,10.858306 L56.7732663,25.0161943 L60.0509966,25.0161943 L60.9061169,22.6254998 L66.7292924,22.6254998 L67.5844801,25.0161943 L70.8629868,25.0161943 L70.8629868,24.9270341 L65.6297845,10.858306 L62.0056922,10.858306 L62.0056922,10.858306 Z M61.7002414,20.2355843 L63.817367,14.0782597 L65.935269,20.2355843 L61.7002414,20.2355843 L61.7002414,20.2355843 Z M80.3582546,20.01839 C81.7778291,19.7065163 83.2562053,18.3336617 83.2562053,15.4938148 C83.2562053,12.5252564 81.561391,10.858306 78.6710689,10.858306 L72.0360473,10.858306 L72.0360473,25.0161943 L74.9680569,25.0161943 L74.9680569,20.2355843 L77.218178,20.2355843 L80.0768039,25.0161943 L83.3382643,25.0161943 L80.3582546,20.01839 L80.3582546,20.01839 Z M78.2380912,18.0288313 L74.9680569,18.0288313 L74.9680569,13.2489664 L78.2126059,13.2489664 C79.424181,13.2489664 80.3790815,14.134844 80.3790815,15.5683463 C80.3790815,17.0538275 79.4497,18.0288313 78.2380912,18.0288313 L78.2380912,18.0288313 L78.2380912,18.0288313 Z M91.3558648,25.0161943 L91.4649615,24.9161643 L91.4649615,13.2489664 L95.680546,13.2489664 L95.680546,10.858306 L84.499679,10.858306 L84.499679,13.2489664 L88.5321079,13.2489664 L88.5321079,25.0161943 L91.3558648,25.0161943 L91.3558648,25.0161943 Z M118.337638,10.858306 L112.72631,10.858306 L112.72631,25.0161943 L118.35941,25.0161943 C122.869509,25.0161943 125.746768,22.3004873 125.746768,17.7913534 C125.746768,13.3281709 122.869509,10.858306 118.337638,10.858306 L118.337638,10.858306 L118.337638,10.858306 Z M118.337638,22.6254998 L115.659265,22.6254998 L115.659265,13.2489664 L118.304423,13.2489664 C121.253479,13.2489664 122.869509,15.2805148 122.869509,17.891451 C122.869509,20.436457 121.20018,22.6254998 118.337638,22.6254998 L118.337638,22.6254998 L118.337638,22.6254998 Z M136.779854,17.9202341 C137.697726,17.6820113 138.729959,16.3564627 138.729959,14.2767956 C138.729959,12.3422296 137.440275,10.858306 134.863842,10.858306 L127.573058,10.858306 L127.573058,25.0161943 L135.354845,25.0161943 C138.01013,25.0161943 139.32,23.4811044 139.32,21.3642562 C139.32,19.4482807 138.208914,18.1218515 136.779854,17.9202341 L136.779854,17.9202341 L136.779854,17.9202341 Z M130.505946,13.2489664 L134.250713,13.2489664 C135.259757,13.2489664 135.852835,13.9758255 135.852835,15.003621 C135.852835,16.080991 135.221816,16.7419537 134.212097,16.7419537 L130.505946,16.7419537 L130.505946,13.2489664 L130.505946,13.2489664 Z M134.555387,22.6565179 L134.338004,22.6254998 L130.505946,22.6254998 L130.505946,19.1325803 L134.376721,19.1325803 C135.815705,19.1325803 136.442809,19.9168702 136.442809,20.886422 C136.442809,21.9949119 135.732903,22.6565179 134.555387,22.6565179 L134.555387,22.6565179 L134.555387,22.6565179 Z M100.62926,8.1 L106.494933,8.1 L106.494933,9.93914154 L100.62926,9.93914154 L100.62926,8.1 L100.62926,8.1 Z M103.653252,25.2 C107.551099,25.2 110.710585,22.0305353 110.710585,18.1211067 C110.710585,14.2116781 107.551099,11.0421794 103.653252,11.0421794 C99.7562155,11.0421794 96.596797,14.2116781 96.596797,18.1211067 C96.596797,22.0305353 99.7562155,25.2 103.653252,25.2 L103.653252,25.2 L103.653252,25.2 Z M103.653252,13.4328398 C106.235153,13.4328398 108.327367,15.5319102 108.327367,18.1211067 C108.327367,20.7104047 106.235153,22.8092719 103.653252,22.8092719 C101.07233,22.8092719 98.9799809,20.7104047 98.9799809,18.1211067 C98.9799809,15.5319102 101.07233,13.4328398 103.653252,13.4328398 L103.653252,13.4328398 L103.653252,13.4328398 Z M101.486422,20.7541852 L103.851817,19.3803485 C104.158786,19.201927 104.55541,18.8047534 104.733266,18.4975864 L106.105718,16.1279546 C106.284351,15.8207537 106.178427,15.7153397 105.872234,15.8936598 L103.506163,17.2690202 C103.199194,17.4473741 102.80257,17.844446 102.624647,18.1516469 L101.252127,20.5198565 C101.074406,20.8270912 101.179486,20.9325053 101.486422,20.7541852 L101.486422,20.7541852 L101.486422,20.7541852 Z M103.702805,17.7813301 C104.001201,17.7813301 104.243293,18.0240905 104.243293,18.3235369 C104.243293,18.6222382 104.001201,18.8649986 103.702805,18.8649986 C103.403565,18.8649986 103.161642,18.6222382 103.161642,18.3235369 C103.161642,18.0240905 103.403565,17.7813301 103.702805,17.7813301 L103.702805,17.7813301 L103.702805,17.7813301 Z" id="logos_simple_cartodb_dark"></path>
                </g>
            </g>
        </g>
    </g>
</svg>