<?xml version="1.0" encoding="utf-8"?>
<!-- Generator: Adobe Illustrator 16.0.0, SVG Export Plug-In . SVG Version: 6.00 Build 0)  -->
<!DOCTYPE svg PUBLIC "-//W3C//DTD SVG 1.1//EN" "http://www.w3.org/Graphics/SVG/1.1/DTD/svg11.dtd">
<svg version="1.1" id="Layer_1" xmlns="http://www.w3.org/2000/svg" xmlns:xlink="http://www.w3.org/1999/xlink" x="0px" y="0px"
	 width="142px" height="142px" viewBox="0 0 142 142" enable-background="new 0 0 142 142" xml:space="preserve">
<path display="none" opacity="0.5" fill-rule="evenodd" clip-rule="evenodd" fill="#FFFFFF" stroke="#000000" stroke-width="4" stroke-linecap="round" stroke-linejoin="round" stroke-miterlimit="10" d="
	M4,71C4,34,34,4,71,4s67,30,67,67s-30,67-67,67S4,108,4,71z"/>
<path display="none" opacity="0.5" d="M68.31,25.37c0.3,0,0.53-0.08,0.71-0.25c0.18-0.16,0.27-0.35,0.27-0.56v-6.51l4.61,6.7
	l0.05,0.09c0.069,0.16,0.18,0.29,0.35,0.39c0.171,0.09,0.38,0.14,0.63,0.14c0.28,0,0.521-0.08,0.7-0.25
	c0.17-0.16,0.261-0.35,0.261-0.56v-9.75c0-0.21-0.091-0.39-0.261-0.56c-0.18-0.16-0.42-0.25-0.7-0.25c-0.32,0-0.58,0.09-0.76,0.25
	c-0.18,0.17-0.27,0.35-0.27,0.56v6.62l-4.63-6.78c-0.04-0.17-0.15-0.32-0.33-0.45c-0.17-0.13-0.38-0.2-0.63-0.2
	c-0.31,0-0.56,0.09-0.75,0.25c-0.19,0.17-0.28,0.35-0.28,0.56v9.75c0,0.21,0.09,0.4,0.28,0.56C67.75,25.29,68,25.37,68.31,25.37z"/>
<path display="none" opacity="0.5" d="M27.28,65.86c-0.13-0.21-0.35-0.35-0.66-0.43c-0.28-0.07-0.53-0.05-0.76,0.06
	c-0.23,0.12-0.37,0.27-0.43,0.47l-1.29,7.819l-1.88-7.539c-0.09-0.28-0.2-0.49-0.35-0.63c-0.15-0.15-0.39-0.22-0.73-0.22
	c-0.51,0-0.86,0.28-1.03,0.85l-1.88,7.539l-1.28-7.819c-0.07-0.2-0.22-0.35-0.44-0.47c-0.22-0.11-0.48-0.13-0.77-0.06
	c-0.3,0.08-0.51,0.22-0.64,0.43c-0.13,0.22-0.17,0.42-0.11,0.62l2.05,9.56c0.05,0.19,0.18,0.36,0.38,0.51
	c0.2,0.14,0.44,0.21,0.73,0.21s0.53-0.07,0.73-0.21c0.2-0.149,0.33-0.319,0.39-0.51l1.89-7.14l1.91,7.14
	c0.06,0.19,0.19,0.36,0.38,0.51c0.21,0.14,0.45,0.21,0.74,0.21c0.27,0,0.51-0.07,0.72-0.21c0.2-0.149,0.34-0.319,0.4-0.51l2.04-9.56
	C27.45,66.28,27.41,66.08,27.28,65.86z"/>
<path display="none" opacity="0.5" d="M122.02,74.76h-3.859v-2.84h2.59c0.33,0,0.58-0.08,0.74-0.25c0.17-0.17,0.25-0.38,0.25-0.64
	c0-0.29-0.08-0.52-0.25-0.69c-0.16-0.16-0.41-0.25-0.74-0.25h-2.59v-2.7h3.859c0.32,0,0.561-0.08,0.73-0.25
	c0.16-0.17,0.25-0.38,0.25-0.65c0-0.28-0.09-0.51-0.25-0.68c-0.17-0.16-0.41-0.25-0.73-0.25h-4.83c-0.319,0-0.569,0.09-0.75,0.25
	c-0.189,0.17-0.289,0.36-0.289,0.56v9.409c0,0.211,0.1,0.391,0.289,0.561c0.181,0.16,0.431,0.25,0.75,0.25h4.83
	c0.32,0,0.561-0.09,0.73-0.25c0.16-0.17,0.25-0.38,0.25-0.65c0-0.279-0.09-0.51-0.25-0.68C122.58,74.85,122.34,74.76,122.02,74.76z"
	/>
<path display="none" opacity="0.5" d="M73.65,123.391c-0.381-0.261-0.78-0.471-1.221-0.641c-0.43-0.18-0.83-0.35-1.209-0.52
	c-0.37-0.17-0.68-0.371-0.93-0.59c-0.25-0.211-0.37-0.511-0.37-0.871c0-0.43,0.14-0.75,0.4-0.979c0.26-0.22,0.6-0.33,1.01-0.33
	c0.48,0,0.87,0.069,1.15,0.22c0.289,0.15,0.5,0.28,0.64,0.4c0.13,0.1,0.26,0.189,0.409,0.27c0.141,0.08,0.311,0.121,0.49,0.121
	c0.311,0,0.53-0.08,0.66-0.25c0.131-0.16,0.2-0.381,0.2-0.641c0-0.15-0.08-0.34-0.229-0.561c-0.15-0.229-0.371-0.439-0.66-0.649
	c-0.29-0.2-0.65-0.38-1.08-0.521c-0.43-0.149-0.93-0.22-1.51-0.22c-0.55,0-1.04,0.08-1.48,0.229c-0.43,0.16-0.8,0.381-1.1,0.67
	c-0.3,0.281-0.53,0.621-0.69,1.011c-0.16,0.39-0.24,0.83-0.24,1.31c0,0.601,0.13,1.09,0.37,1.471c0.25,0.39,0.56,0.709,0.94,0.97
	c0.38,0.26,0.78,0.47,1.21,0.649c0.43,0.17,0.84,0.34,1.22,0.531c0.37,0.18,0.681,0.389,0.931,0.629s0.369,0.541,0.369,0.9
	c0,0.439-0.13,0.76-0.39,0.96c-0.271,0.2-0.63,0.3-1.08,0.3c-0.41,0-0.79-0.07-1.14-0.22c-0.36-0.14-0.63-0.3-0.83-0.49
	c-0.12-0.11-0.26-0.21-0.41-0.31s-0.32-0.16-0.52-0.17c-0.59,0-0.89,0.27-0.89,0.81c0,0.24,0.07,0.46,0.21,0.66
	c0.13,0.19,0.31,0.37,0.53,0.521c0.21,0.16,0.46,0.289,0.73,0.41c0.27,0.109,0.54,0.209,0.81,0.289c0.28,0.08,0.55,0.141,0.8,0.18
	C71,128.98,71.22,129,71.38,129c1.11,0,1.99-0.279,2.62-0.84c0.63-0.551,0.939-1.311,0.939-2.28c0-0.62-0.119-1.12-0.359-1.51
	C74.33,123.98,74.02,123.65,73.65,123.391z"/>
<path opacity="0.5" fill-rule="evenodd" clip-rule="evenodd" d="M70.26,97.859L63.75,72.17l14.29,0.58L70.26,97.859z M70.03,35.21
	L59.36,69.48l-0.01,0.05l-0.01,0.04c-0.11,0.34-0.12,0.72-0.03,1.07l8.84,34.99c0.22,0.87,0.99,1.5,1.88,1.55
	c0.53,0.021,1.04-0.17,1.41-0.51c0.24-0.22,0.43-0.51,0.53-0.85l10.65-34.25c0.06-0.2,0.069-0.45,0.06-0.69
	c0-0.15-0.02-0.31-0.06-0.47L73.85,35.33c-0.209-0.87-0.979-1.48-1.87-1.51C71.09,33.8,70.3,34.36,70.03,35.21z"/>
</svg>
