<?xml version="1.0" encoding="UTF-8" standalone="no"?>
<svg width="40px" height="40px" viewBox="0 0 40 40" version="1.1" xmlns="http://www.w3.org/2000/svg" xmlns:xlink="http://www.w3.org/1999/xlink" xmlns:sketch="http://www.bohemiancoding.com/sketch/ns">
    <!-- Generator: Sketch 3.3.3 (12072) - http://www.bohemiancoding.com/sketch -->
    <title>Rectangle 7</title>
    <desc>Created with Sketch.</desc>
    <defs></defs>
    <g id="Page-1" stroke="none" stroke-width="1" fill="none" fill-rule="evenodd" sketch:type="MSPage">
        <g id="Rectangle-7" sketch:type="MSLayerGroup" fill="#FFFFFF">
            <path d="M0,4.00002553 C0,1.79087243 1.79642476,0 4.00002553,0 L35.9999745,0 C38.2091276,0 40,1.79642476 40,4.00002553 L40,35.9999745 C40,38.2091276 38.2035752,40 35.9999745,40 L4.00002553,40 C1.79087243,40 0,38.2035752 0,35.9999745 L0,4.00002553 Z M18.8123927,29.7346991 C17.5625736,29.7346991 17.4777729,29.8921681 17.4777729,29.8921681 L17.7847541,31.8155031 C17.7847541,31.8155031 18.0580265,32 18.7718926,32 C19.4857587,32 19.7185641,31.8155031 19.7185641,31.8155031 L20.1390976,29.902678 C20.1390976,29.902678 20.0622449,29.7346991 18.8123927,29.7346991 Z M27.4273491,15.4748742 L27.358841,15.4212113 C27.358841,15.4212113 27.4807048,15.3642251 27.5469492,15.300478 C27.676414,15.1756356 27.75173,15.0196072 27.7260023,15.0368619 C27.5038053,15.1853434 27.0696395,15.113018 27.0696395,15.113018 C27.0696395,15.113018 27.2199079,15.0852534 27.3088561,15.0278908 C27.4447653,14.9405044 27.4841253,14.819722 27.4674527,14.8313451 C27.358841,14.9055859 27.2411081,14.9273915 27.1593808,14.9273915 C26.6460986,14.9288976 26.5628346,14.4874966 26.0874086,14.4874966 C25.8921124,14.4874966 25.4814106,14.6873655 25.353846,14.4890027 C24.6543723,12.828498 23.6009564,10.4281395 22.5740613,8 C18.3335793,8.85873724 16.4482175,15.9961147 20.5713632,17.2639865 C18.3294318,16.6246155 17.2442239,14.433097 17.5841373,12.5284736 C16.0492641,13.0508437 14.0499699,13.8664935 12.4886089,15.7501134 C11.5529093,16.8788676 11.5567264,18.0860044 11.5567264,20.4743633 C11.5105255,21.2086674 10.9,21.4879829 10.9,21.4879829 C10.9,21.4879829 11.6274983,21.518023 11.8598906,21.1470975 C12.861818,22.8406218 17.6988132,27.1973676 17.6988132,28.1934216 C17.6988132,28.1934216 17.5254443,28.661032 17.5784365,28.6674002 C18.0186831,28.718411 20.0679291,28.8193195 20.0679291,28.8193195 C20.1572574,28.4806932 19.9509398,28.2428609 19.9509398,28.0051758 C19.9509398,25.5818657 23.4238035,23.3341141 23.8318615,23.0585147 C23.9775859,23.1440021 24.2315584,23.2189959 24.3560826,23.2726424 C25.5253146,23.7762518 24.1709983,26.6296509 22.9590024,26.6296509 C21.5626822,26.6296509 23.7466807,24.3372566 23.7906013,24.2825132 C23.9359456,24.1014051 23.5396526,24.2689911 23.4143518,24.1482578 C23.3378957,24.0743772 23.4238035,23.8767674 23.233415,24.0301274 C23.233415,24.0301274 20.3332536,26.5104073 22.3840363,27.2400949 C26.2710057,28.6235105 31.9569831,19.7251291 27.4273491,15.4748742 Z" sketch:type="MSShapeGroup"></path>
        </g>
    </g>
</svg>